<?xml version="1.0" encoding="iso-8859-1"?>
<!-- Generator: Adobe Illustrator 16.0.0, SVG Export Plug-In . SVG Version: 6.00 Build 0)  -->
<!DOCTYPE svg PUBLIC "-//W3C//DTD SVG 1.1//EN" "http://www.w3.org/Graphics/SVG/1.1/DTD/svg11.dtd">
<svg version="1.1" id="Capa_1" xmlns="http://www.w3.org/2000/svg" xmlns:xlink="http://www.w3.org/1999/xlink" x="0px" y="0px"
	 width="26.989px" height="25.756px" viewBox="0 0 26.989 25.756" style="enable-background:new 0 0 26.989 25.756;"
	 xml:space="preserve">
<path style="fill:#000000;" d="M24.842,0H2.147C0.958,0,0,0.961,0,2.145v21.467c0,1.184,0.958,2.145,2.147,2.145h22.695
	c1.183,0,2.146-0.961,2.146-2.145V2.145C26.989,0.961,26.025,0,24.842,0z M6.167,8.164c-1.534,0-2.778-1.244-2.778-2.779
	c0-1.531,1.244-2.777,2.778-2.777c1.534,0,2.778,1.246,2.778,2.777C8.944,6.92,7.7,8.164,6.167,8.164z M13.495,15.656
	c-1.534,0-2.778-1.242-2.778-2.777c0-1.533,1.244-2.777,2.778-2.777c1.532,0,2.778,1.244,2.778,2.777
	C16.273,14.414,15.027,15.656,13.495,15.656z M21.164,23.004c-1.533,0-2.777-1.244-2.777-2.777s1.244-2.777,2.777-2.777
	s2.777,1.244,2.777,2.777S22.697,23.004,21.164,23.004z M21.005,8.211c-1.535,0-2.779-1.244-2.779-2.775
	c0-1.533,1.244-2.777,2.779-2.777c1.533,0,2.777,1.244,2.777,2.777C23.783,6.967,22.539,8.211,21.005,8.211z M6.235,22.941
	c-1.533,0-2.776-1.244-2.776-2.777c0-1.535,1.244-2.777,2.776-2.777s2.776,1.242,2.776,2.777
	C9.011,21.697,7.768,22.941,6.235,22.941z"/>
<g>
</g>
<g>
</g>
<g>
</g>
<g>
</g>
<g>
</g>
<g>
</g>
<g>
</g>
<g>
</g>
<g>
</g>
<g>
</g>
<g>
</g>
<g>
</g>
<g>
</g>
<g>
</g>
<g>
</g>
</svg>
